<svg width="29" height="25" viewBox="0 0 29 25" fill="none" xmlns="http://www.w3.org/2000/svg">
<path fill-rule="evenodd" clip-rule="evenodd" d="M0 0C0 0 1.93267 2.02618 2.61845 3.05486C3.30424 4.08354 2.61845 18.0486 2.61845 18.0486C2.61845 21.7581 6.26559 24.7195 8.66584 25H21.1035C25.7481 25 28.086 22.3504 28.086 19.015V4.08354C28.086 1.52743 25.7573 0.259158 22.9738 0H0ZM5.64212 17.1803V13.2942C5.64212 11.7039 7.28065 10.8209 8.72816 10.1624C9.42224 9.84663 10.0385 9.00423 10.4115 8.39957C10.4553 8.32861 10.4989 8.2516 10.5429 8.17378C10.7677 7.77633 11.0045 7.35776 11.3431 7.61596C11.424 7.67765 11.5266 7.77801 11.6215 7.8709C11.6776 7.92581 11.7311 7.97812 11.7759 8.0183C12.2554 8.44887 13.5659 9.60433 14.1209 9.88183C14.8067 10.2247 16.4588 10.2247 16.8952 9.78831C17.0486 9.63492 17.3445 9.35827 17.6638 9.06398C17.7978 8.94049 17.9345 8.80477 18.0728 8.66756C18.7909 7.95473 19.5493 7.20193 20.1683 7.91799L21.5903 9.29626C21.9778 9.67182 22.4963 9.88183 23.0359 9.88183C24.163 9.88183 25.0845 10.7808 25.1123 11.9077L25.2411 17.1354C25.2671 18.1895 25.1352 19.2799 24.5371 20.1484C24.4147 20.3261 24.287 20.4874 24.151 20.6364C23.0924 21.7962 21.3783 21.9766 19.808 21.9766H11.6725C10.2987 21.9766 8.84708 21.9222 7.71019 21.1508C7.17315 20.7864 6.72624 20.3086 6.28325 19.622C5.81814 18.901 5.64212 18.0383 5.64212 17.1803Z" fill="url(#paint0_linear_9_9811)"/>
<defs>
<linearGradient id="paint0_linear_9_9811" x1="14.043" y1="0" x2="14.043" y2="25" gradientUnits="userSpaceOnUse">
<stop stop-color="#FF2222"/>
<stop offset="1" stop-color="#FF8022"/>
</linearGradient>
</defs>
</svg>
