<svg width="23" height="23" viewBox="0 0 23 23" fill="none" xmlns="http://www.w3.org/2000/svg">
<mask id="path-1-inside-1_206_1943" fill="white">
<path fill-rule="evenodd" clip-rule="evenodd" d="M11.5 0C12.0523 0 12.5 0.447715 12.5 1V3.56201C16.1183 4.01365 18.9859 6.88161 19.4371 10.5H21.9997C22.552 10.5 22.9997 10.9477 22.9997 11.5C22.9997 12.0523 22.552 12.5 21.9997 12.5H19.4371C18.9859 16.1184 16.1183 18.9864 12.5 19.438V22C12.5 22.5523 12.0523 23 11.5 23C10.9477 23 10.5 22.5523 10.5 22V19.4382C6.88082 18.9874 4.0122 16.119 3.56092 12.5H1C0.447715 12.5 0 12.0523 0 11.5C0 10.9477 0.447715 10.5 1 10.5H3.56092C4.01221 6.88096 6.88082 4.01263 10.5 3.56177V1C10.5 0.447715 10.9477 0 11.5 0ZM5.49902 11.5C5.49902 8.18629 8.18532 5.5 11.499 5.5C14.8127 5.5 17.499 8.18629 17.499 11.5C17.499 14.8137 14.8127 17.5 11.499 17.5C8.18532 17.5 5.49902 14.8137 5.49902 11.5ZM11.5006 16.4C14.2068 16.4 16.4006 14.2062 16.4006 11.5C16.4006 8.79381 14.2068 6.60001 11.5006 6.60001C8.79439 6.60001 6.60059 8.79381 6.60059 11.5C6.60059 14.2062 8.79439 16.4 11.5006 16.4Z"/>
</mask>
<path fill-rule="evenodd" clip-rule="evenodd" d="M11.5 0C12.0523 0 12.5 0.447715 12.5 1V3.56201C16.1183 4.01365 18.9859 6.88161 19.4371 10.5H21.9997C22.552 10.5 22.9997 10.9477 22.9997 11.5C22.9997 12.0523 22.552 12.5 21.9997 12.5H19.4371C18.9859 16.1184 16.1183 18.9864 12.5 19.438V22C12.5 22.5523 12.0523 23 11.5 23C10.9477 23 10.5 22.5523 10.5 22V19.4382C6.88082 18.9874 4.0122 16.119 3.56092 12.5H1C0.447715 12.5 0 12.0523 0 11.5C0 10.9477 0.447715 10.5 1 10.5H3.56092C4.01221 6.88096 6.88082 4.01263 10.5 3.56177V1C10.5 0.447715 10.9477 0 11.5 0ZM5.49902 11.5C5.49902 8.18629 8.18532 5.5 11.499 5.5C14.8127 5.5 17.499 8.18629 17.499 11.5C17.499 14.8137 14.8127 17.5 11.499 17.5C8.18532 17.5 5.49902 14.8137 5.49902 11.5ZM11.5006 16.4C14.2068 16.4 16.4006 14.2062 16.4006 11.5C16.4006 8.79381 14.2068 6.60001 11.5006 6.60001C8.79439 6.60001 6.60059 8.79381 6.60059 11.5C6.60059 14.2062 8.79439 16.4 11.5006 16.4Z" fill="url(#paint0_linear_206_1943)"/>
<path d="M12.5 3.56201H11.5V4.44495L12.3761 4.55431L12.5 3.56201ZM19.4371 10.5L18.4448 10.6237L18.5541 11.5H19.4371V10.5ZM19.4371 12.5V11.5H18.5541L18.4448 12.3763L19.4371 12.5ZM12.5 19.438L12.3761 18.4457L11.5 18.5551V19.438H12.5ZM10.5 19.4382H11.5V18.5551L10.6236 18.4459L10.5 19.4382ZM3.56092 12.5L4.55323 12.3763L4.44396 11.5H3.56092V12.5ZM3.56092 10.5V11.5H4.44396L4.55323 10.6237L3.56092 10.5ZM10.5 3.56177L10.6236 4.5541L11.5 4.44493V3.56177H10.5ZM13.5 1C13.5 -0.104569 12.6046 -1 11.5 -1V1H13.5ZM13.5 3.56201V1H11.5V3.56201H13.5ZM20.4295 10.3763C19.9216 6.30372 16.6962 3.07804 12.6239 2.56972L12.3761 4.55431C15.5403 4.94927 18.0502 7.45949 18.4448 10.6237L20.4295 10.3763ZM21.9997 9.5H19.4371V11.5H21.9997V9.5ZM23.9997 11.5C23.9997 10.3954 23.1043 9.5 21.9997 9.5V11.5H23.9997ZM21.9997 13.5C23.1043 13.5 23.9997 12.6046 23.9997 11.5H21.9997V13.5ZM19.4371 13.5H21.9997V11.5H19.4371V13.5ZM12.6239 20.4303C16.6962 19.922 19.9216 16.6963 20.4295 12.6237L18.4448 12.3763C18.0503 15.5405 15.5403 18.0507 12.3761 18.4457L12.6239 20.4303ZM13.5 22V19.438H11.5V22H13.5ZM11.5 24C12.6046 24 13.5 23.1046 13.5 22H11.5V24ZM9.5 22C9.5 23.1046 10.3954 24 11.5 24V22H9.5ZM9.5 19.4382V22H11.5V19.4382H9.5ZM2.5686 12.6237C3.07653 16.697 6.30296 19.9231 10.3764 20.4306L10.6236 18.4459C7.45868 18.0516 4.94788 15.5411 4.55323 12.3763L2.5686 12.6237ZM1 13.5H3.56092V11.5H1V13.5ZM-1 11.5C-1 12.6046 -0.104569 13.5 1 13.5V11.5H-1ZM1 9.5C-0.104569 9.5 -1 10.3954 -1 11.5H1V9.5ZM3.56092 9.5H1V11.5H3.56092V9.5ZM10.3764 2.56944C6.30297 3.07688 3.07653 6.303 2.5686 10.3763L4.55323 10.6237C4.94788 7.45892 7.45868 4.94837 10.6236 4.5541L10.3764 2.56944ZM9.5 1V3.56177H11.5V1H9.5ZM11.5 -1C10.3954 -1 9.5 -0.104569 9.5 1H11.5V-1ZM11.499 4.5C7.63303 4.5 4.49902 7.63401 4.49902 11.5H6.49902C6.49902 8.73858 8.7376 6.5 11.499 6.5V4.5ZM18.499 11.5C18.499 7.63401 15.365 4.5 11.499 4.5V6.5C14.2605 6.5 16.499 8.73858 16.499 11.5H18.499ZM11.499 18.5C15.365 18.5 18.499 15.366 18.499 11.5H16.499C16.499 14.2614 14.2605 16.5 11.499 16.5V18.5ZM4.49902 11.5C4.49902 15.366 7.63303 18.5 11.499 18.5V16.5C8.7376 16.5 6.49902 14.2614 6.49902 11.5H4.49902ZM15.4006 11.5C15.4006 13.6539 13.6545 15.4 11.5006 15.4V17.4C14.7591 17.4 17.4006 14.7585 17.4006 11.5H15.4006ZM11.5006 7.60001C13.6545 7.60001 15.4006 9.3461 15.4006 11.5H17.4006C17.4006 8.24153 14.7591 5.60001 11.5006 5.60001V7.60001ZM7.60059 11.5C7.60059 9.3461 9.34668 7.60001 11.5006 7.60001V5.60001C8.24211 5.60001 5.60059 8.24153 5.60059 11.5H7.60059ZM11.5006 15.4C9.34668 15.4 7.60059 13.6539 7.60059 11.5H5.60059C5.60059 14.7585 8.24211 17.4 11.5006 17.4V15.4Z" fill="url(#paint1_linear_206_1943)" mask="url(#path-1-inside-1_206_1943)"/>
<defs>
<linearGradient id="paint0_linear_206_1943" x1="21.6964" y1="11.5" x2="0.766657" y2="11.5" gradientUnits="userSpaceOnUse">
<stop stop-color="#FF2222"/>
<stop offset="1" stop-color="#FF8022"/>
</linearGradient>
<linearGradient id="paint1_linear_206_1943" x1="21.6964" y1="11.5" x2="0.766657" y2="11.5" gradientUnits="userSpaceOnUse">
<stop stop-color="#FF2222"/>
<stop offset="1" stop-color="#FF8022"/>
</linearGradient>
</defs>
</svg>
