<svg width="30" height="30" viewBox="0 0 30 30" fill="none" xmlns="http://www.w3.org/2000/svg">
<path fill-rule="evenodd" clip-rule="evenodd" d="M22.1484 27.4219H7.85156C6.16406 27.4219 4.80469 26.0625 4.80469 24.375V5.625C4.80469 3.9375 6.16406 2.57812 7.85156 2.57812H22.1484C23.8359 2.57812 25.1953 3.9375 25.1953 5.625V24.375C25.1953 26.0625 23.8359 27.4219 22.1484 27.4219ZM9.5 19C8.67157 19 8 19.6716 8 20.5C8 21.3284 8.67157 22 9.5 22H12.5C13.3284 22 14 21.3284 14 20.5C14 19.6716 13.3284 19 12.5 19H9.5ZM8 14.5C8 13.6716 8.67157 13 9.5 13H18.5C19.3284 13 20 13.6716 20 14.5C20 15.3284 19.3284 16 18.5 16H9.5C8.67157 16 8 15.3284 8 14.5ZM9.5 7C8.67157 7 8 7.67157 8 8.5C8 9.32843 8.67157 10 9.5 10H18.5C19.3284 10 20 9.32843 20 8.5C20 7.67157 19.3284 7 18.5 7H9.5Z" fill="url(#paint0_linear_67_1631)"/>
<defs>
<linearGradient id="paint0_linear_67_1631" x1="24.0398" y1="15.0001" x2="5.48437" y2="15.0001" gradientUnits="userSpaceOnUse">
<stop stop-color="#FF2222"/>
<stop offset="1" stop-color="#FF8022"/>
</linearGradient>
</defs>
</svg>
