<svg width="21" height="26" viewBox="0 0 21 26" fill="none" xmlns="http://www.w3.org/2000/svg">
<path d="M10.3963 17.1273C4.78928 17.1273 0 18.0113 0 21.5474C0 25.0847 4.75938 26 10.3963 26C16.0033 26 20.7925 25.1172 20.7925 21.5799C20.7925 18.0425 16.0345 17.1273 10.3963 17.1273Z" fill="url(#paint0_linear_9_9825)"/>
<path opacity="0.4" d="M10.3963 13.7594C14.2157 13.7594 17.276 10.6979 17.276 6.87971C17.276 3.06155 14.2157 0 10.3963 0C6.57812 0 3.51657 3.06155 3.51657 6.87971C3.51657 10.6979 6.57812 13.7594 10.3963 13.7594Z" fill="url(#paint1_linear_9_9825)"/>
<defs>
<linearGradient id="paint0_linear_9_9825" x1="-2.94849e-08" y1="16.5825" x2="21.7164" y2="24.4673" gradientUnits="userSpaceOnUse">
<stop stop-color="#FF8022"/>
<stop offset="1" stop-color="#FF2222"/>
</linearGradient>
<linearGradient id="paint1_linear_9_9825" x1="3.51657" y1="-0.844876" x2="19.4005" y2="1.61611" gradientUnits="userSpaceOnUse">
<stop stop-color="#FF8022"/>
<stop offset="1" stop-color="#FF2222"/>
</linearGradient>
</defs>
</svg>
